<svg width="97" height="64" viewBox="0 0 97 64" fill="none" xmlns="http://www.w3.org/2000/svg">
<path fill-rule="evenodd" clip-rule="evenodd" d="M2.33117 64H96.7052L82.0407 1.30966e-05L32.8531 0V5.1891L76.8429 5.18911L81.1206 27.6416H31.7678C25.9637 27.6416 14.0521 37.734 10.1625 42.3946C8.73308 44.1099 -5.48281 64 2.33117 64ZM62.6907 34.4153C36.7882 34.4153 19.4651 32.6144 8.67136 57.0807L89.7839 57.0696L83.5293 34.4594C76.7026 34.4594 73.1299 34.4153 62.6907 34.4153Z" fill="white"/>
<path d="M31.0668 49.992C28.3639 48.3547 30.4517 36.7984 37.8412 40.5754C46.5561 45.0282 37.4687 53.8557 31.0668 49.992Z" fill="white"/>
<path d="M56.6392 49.9141C50.3586 53.9163 41.2192 45.0282 49.9601 40.5581C57.0291 36.937 60.4596 47.4798 56.6392 49.9141Z" fill="white"/>
<path d="M66.5935 39.917C74.0782 37.526 76.8244 46.3969 72.5709 49.3856C65.0515 54.6527 59.9403 42.0481 66.5935 39.917Z" fill="white"/>
</svg>
