<svg width="617" height="160" viewBox="0 0 617 160" fill="none" xmlns="http://www.w3.org/2000/svg">
<path d="M274.773 79.7089C274.773 104.75 277.466 122.875 282.853 134.086C288.385 145.15 295.519 150.683 304.254 150.683C310.078 150.683 314.809 148.863 318.449 145.223C322.234 141.438 325.291 137.216 327.621 132.557C330.241 127.316 332.28 121.347 333.735 114.65L339.195 115.742C337.594 123.895 335.119 131.174 331.77 137.58C330.314 140.346 328.567 143.039 326.529 145.66C324.636 148.28 322.38 150.61 319.759 152.648C317.139 154.686 314.154 156.288 310.805 157.452C307.603 158.763 303.963 159.418 299.886 159.418C293.335 159.418 287.148 157.671 281.324 154.177C275.501 150.537 270.405 145.296 266.037 138.453C261.67 131.611 258.176 123.239 255.555 113.34C253.08 103.44 251.843 92.2294 251.843 79.7089C251.843 66.6061 253.08 55.1047 255.555 45.2048C258.176 35.1593 261.67 26.8608 266.037 20.3094C270.405 13.6124 275.501 8.58963 281.324 5.24113C287.148 1.74704 293.335 0 299.886 0C304.691 0 308.694 0.800727 311.897 2.40218C315.246 3.85806 317.648 5.16834 319.104 6.33303L331.115 1.0919L339.195 46.9518L333.735 48.0437C328.349 32.7571 323.399 22.0564 318.886 15.9418C314.372 9.68154 309.131 6.55141 303.162 6.55141C294.427 6.55141 287.512 12.5933 282.416 24.677C277.32 36.6151 274.773 54.9591 274.773 79.7089Z" fill="black"/>
<path d="M89.536 136.483C89.536 142.015 90.1184 145.8 91.2831 147.839C92.5934 149.731 96.0147 150.677 101.547 150.677H102.639V156.137H56.7789V150.677H57.8708C63.4032 150.677 66.7517 149.731 67.9164 147.839C69.2266 145.8 69.8818 142.015 69.8818 136.483V80.7957H32.7571V136.483C32.7571 142.015 33.3394 145.8 34.5041 147.839C35.8144 149.731 39.2357 150.677 44.768 150.677H45.8599V156.137H0V150.677H1.0919C6.62421 150.677 9.97271 149.731 11.1374 147.839C12.4477 145.8 13.1028 142.015 13.1028 136.483V22.9248C13.1028 17.3925 12.4477 13.6801 11.1374 11.7874C9.97271 9.74921 6.62421 8.7301 1.0919 8.7301H0V3.27058H45.8599V8.7301H44.768C39.2357 8.7301 35.8144 9.74921 34.5041 11.7874C33.3394 13.6801 32.7571 17.3925 32.7571 22.9248V74.2443H69.8818V22.9248C69.8818 17.3925 69.2266 13.6801 67.9164 11.7874C66.7517 9.74921 63.4032 8.7301 57.8708 8.7301H56.7789V3.27058H102.639V8.7301H101.547C96.0147 8.7301 92.5934 9.74921 91.2831 11.7874C90.1184 13.6801 89.536 17.3925 89.536 22.9248V136.483Z" fill="black"/>
<path d="M593.062 144.391V132.64H604.813V144.391H593.062ZM534.307 62.0271V50.276H557.809V62.0271H534.307ZM557.809 50.276V38.5248H569.56V50.276H557.809ZM569.56 38.5248V26.7737H581.311V38.5248H569.56ZM451.943 156.142V144.391H463.694V120.889H475.445V85.5294H487.196V73.7783H498.947V38.5248H510.804V15.0226H498.947V3.27141H557.809V15.0226H534.307V38.5248H522.555V62.0271H534.307V73.7783H546.058V85.5294H557.809V132.64H569.56V144.391H593.062V156.142H546.058V144.391H534.307V85.5294H522.555V73.7783H510.804V97.2805H498.947V120.889H487.196V144.391H498.947V156.142H451.943ZM593.062 38.5248V26.7737H581.311V15.0226H593.062V3.27141H616.67V26.7737H604.813V38.5248H593.062Z" fill="black"/>
<path d="M125.111 156.142V144.391H113.36V132.64H101.609V62.0271H113.36V38.5248H125.111V26.7737H136.862V15.0226H160.47V3.27141H219.226V15.0226H230.977V26.7737H242.728V97.2805H230.977V120.889H219.226V132.64H207.475V144.391H183.973V132.64H195.724V120.889H207.475V85.5294H219.226V26.7737H207.475V15.0226H172.221V26.7737H148.613V38.5248H136.862V62.0271H125.111V132.64H136.862V144.391H183.973V156.142H125.111Z" fill="black"/>
<path d="M345.897 62.0666H357.687V73.8256H345.897V62.0666Z" fill="white"/>
<path d="M345.897 73.8256H357.687V85.5846H345.897V73.8256Z" fill="#FF4AAE"/>
<path d="M369.477 50.3075H381.267V62.0666H369.477V50.3075Z" fill="#FF4AAE"/>
<path d="M369.477 62.0666H381.267V73.8256H369.477V62.0666Z" fill="#FF4AAE"/>
<path d="M369.477 85.5846H381.267V97.3437H369.477V85.5846Z" fill="#FF4AAE"/>
<path d="M369.477 97.3437H381.267V109.103H369.477V97.3437Z" fill="#FF4AAE"/>
<path d="M369.477 109.103H381.267V120.862H369.477V109.103Z" fill="#FF4AAE"/>
<path d="M393.058 15.0304H404.848V26.7895H393.058V15.0304Z" fill="white"/>
<path d="M393.058 15.0304H404.848V26.7895H393.058V15.0304Z" fill="#FF4AAE"/>
<path d="M393.058 3.27141H404.848V15.0304H393.058V3.27141Z" fill="#FF4AAE"/>
<path d="M393.058 26.7895H404.848V38.5485H393.058V26.7895Z" fill="#FF4AAE"/>
<path d="M393.058 38.5485H404.848V50.3075H393.058V38.5485Z" fill="#FF4AAE"/>
<path d="M393.058 97.3437H404.848V109.103H393.058V97.3437Z" fill="#FF4AAE"/>
<path d="M393.058 109.103H404.848V120.862H393.058V109.103Z" fill="#FF4AAE"/>
<path d="M393.058 120.862H404.848V132.621H393.058V120.862Z" fill="#FF4AAE"/>
<path d="M416.638 73.8256H428.429V85.5846H416.638V73.8256Z" fill="#FF4AAE"/>
<path d="M416.638 85.5846H428.429V97.3437H416.638V85.5846Z" fill="#FF4AAE"/>
<path d="M440.219 73.8256H452.009V85.5846H440.219V73.8256Z" fill="#FF4AAE"/>
<path d="M357.687 62.0666H369.477V73.8256H357.687V62.0666Z" fill="#FF4AAE"/>
<path d="M345.897 62.0666H357.687V73.8256H345.897V62.0666Z" fill="#FF4AAE"/>
<path d="M357.687 73.8256H369.477V85.5846H357.687V73.8256Z" fill="#FF4AAE"/>
<path d="M357.687 85.5846H369.477V97.3437H357.687V85.5846Z" fill="#FF4AAE"/>
<path d="M381.267 26.7895H393.058V38.5485H381.267V26.7895Z" fill="#FF4AAE"/>
<path d="M381.267 38.5485H393.058V50.3075H381.267V38.5485Z" fill="#FF4AAE"/>
<path d="M381.267 50.3075H393.058V62.0666H381.267V50.3075Z" fill="#FF4AAE"/>
<path d="M381.267 109.103H393.058V120.862H381.267V109.103Z" fill="#FF4AAE"/>
<path d="M381.267 120.862H393.058V132.621H381.267V120.862Z" fill="#FF4AAE"/>
<path d="M404.848 38.5485H416.638V50.3075H404.848V38.5485Z" fill="white"/>
<path d="M404.848 50.3075H416.638V62.0666H404.848V50.3075Z" fill="#FF4AAE"/>
<path d="M404.848 38.5485H416.638V50.3075H404.848V38.5485Z" fill="#FF4AAE"/>
<path d="M404.848 62.0666H416.638V73.8256H404.848V62.0666Z" fill="#FF4AAE"/>
<path d="M404.848 85.5846H416.638V97.3437H404.848V85.5846Z" fill="#FF4AAE"/>
<path d="M404.848 97.3437H416.638V109.103H404.848V97.3437Z" fill="#FF4AAE"/>
<path d="M334.106 73.8256H345.897V85.5846H334.106V73.8256Z" fill="#FF4AAE"/>
<path d="M322.316 73.8256H334.106V85.5846H322.316V73.8256Z" fill="#FF4AAE"/>
<path d="M428.429 73.8256H440.219V85.5846H428.429V73.8256Z" fill="#FF4AAE"/>
<path d="M428.429 85.5846H440.219V97.3437H428.429V85.5846Z" fill="#FF4AAE"/>
<path d="M452.009 73.8256H463.8V85.5846H452.009V73.8256Z" fill="#FF4AAE"/>
<path d="M416.638 62.0666H428.429V73.8256H416.638V62.0666Z" fill="#FF4AAE"/>
<path d="M393.058 144.38H381.267V156.139H393.058V144.38Z" fill="#FF4AAE"/>
<path d="M393.058 132.621H381.267V144.38H393.058V132.621Z" fill="#FF4AAE"/>
</svg>
