<svg width="183" height="191" viewBox="0 0 183 191" fill="none" xmlns="http://www.w3.org/2000/svg">
<path d="M30.4237 98.8771H45.6356V114.089H30.4237V98.8771Z" fill="black"/>
<path d="M30.4237 174.936H45.6356V190.148H30.4237V174.936Z" fill="black"/>
<path d="M60.8474 91.2712H76.0593V106.483H60.8474V91.2712Z" fill="black"/>
<path d="M60.8474 174.936H76.0593V190.148H60.8474V174.936Z" fill="black"/>
<path d="M91.2712 0H106.483V15.2119H91.2712V0Z" fill="black"/>
<path d="M91.2712 22.8178H106.483V38.0296H91.2712V22.8178Z" fill="black"/>
<path d="M91.2712 38.0296H106.483V53.2415H91.2712V38.0296Z" fill="black"/>
<path d="M91.2712 53.2415H106.483V68.4534H91.2712V53.2415Z" fill="black"/>
<path d="M91.2712 68.4534H106.483V83.6652H91.2712V68.4534Z" fill="black"/>
<path d="M76.0593 83.6652H91.2712V98.8771H76.0593V83.6652Z" fill="black"/>
<path d="M91.2712 174.936H106.483V190.148H91.2712V174.936Z" fill="black"/>
<path d="M121.695 22.8178H136.907V38.0296H121.695V22.8178Z" fill="black"/>
<path d="M121.695 159.725H136.907V174.936H121.695V159.725Z" fill="black"/>
<path d="M152.119 0H167.33V15.2119H152.119V0Z" fill="black"/>
<path d="M121.695 0H136.907V15.2119H121.695V0Z" fill="black"/>
<path d="M136.907 0H152.119V15.2119H136.907V0Z" fill="black"/>
<path d="M106.483 0H121.695V15.2119H106.483V0Z" fill="black"/>
<path d="M152.119 22.8178H167.33V38.0296H152.119V22.8178Z" fill="black"/>
<path d="M152.119 38.0296H167.33V53.2415H152.119V38.0296Z" fill="black"/>
<path d="M152.119 53.2415H167.33V68.4534H152.119V53.2415Z" fill="black"/>
<path d="M152.119 68.4534H167.33V83.6652H152.119V68.4534Z" fill="black"/>
<path d="M152.119 83.6652H167.33V98.8771H152.119V83.6652Z" fill="black"/>
<path d="M152.119 98.8771H167.33V114.089H152.119V98.8771Z" fill="black"/>
<path d="M152.119 114.089H167.33V129.301H152.119V114.089Z" fill="black"/>
<path d="M30.4237 98.8771H45.6356V114.089H30.4237V98.8771Z" fill="black"/>
<path d="M45.6356 98.8771H60.8474V114.089H45.6356V98.8771Z" fill="black"/>
<path d="M45.6356 174.936H60.8474V190.148H45.6356V174.936Z" fill="black"/>
<path d="M76.0593 15.2119H91.2712V30.4237H76.0593V15.2119Z" fill="black"/>
<path d="M76.0593 174.936H91.2712V190.148H76.0593V174.936Z" fill="black"/>
<path d="M106.483 22.8178H121.695V38.0296H106.483V22.8178Z" fill="black"/>
<path d="M106.483 159.725H121.695V174.936H106.483V159.725Z" fill="black"/>
<path d="M15.2119 114.089H30.4237V129.301H15.2119V114.089Z" fill="black"/>
<path d="M15.2119 159.725H30.4237V174.936H15.2119V159.725Z" fill="black"/>
<path d="M0 129.301H15.2119V144.513H0V129.301Z" fill="black"/>
<path d="M0 144.513H15.2119V159.725H0V144.513Z" fill="black"/>
<path d="M136.907 22.8178H152.119V38.0296H136.907V22.8178Z" fill="black"/>
<path d="M144.513 129.301H159.725V144.513H144.513V129.301Z" fill="black"/>
<path d="M136.907 144.513H152.119V159.725H136.907V144.513Z" fill="black"/>
<path d="M167.33 7.60593H182.542V22.8178H167.33V7.60593Z" fill="black"/>
<path d="M76.0593 7.60593H91.2712V22.8178H76.0593V7.60593Z" fill="black"/>
<path d="M167.33 15.2119H182.542V30.4237H167.33V15.2119Z" fill="black"/>
<path d="M106.483 15.2119H91.2712V22.8178H106.483H121.695H136.907H152.119H167.33V15.2119H152.119H136.907H121.695H106.483Z" fill="white"/>
<path d="M45.6356 114.089H30.4237V129.301H15.2119V144.513V159.725H30.4237V174.936H45.6356H60.8474H76.0593H91.2712H106.483V159.725H121.695H136.907V144.513H144.513V129.301H152.119V114.089V98.8771V83.6652V68.4534V53.2415V38.0296H136.907H121.695H106.483V53.2415V68.4534V83.6652H91.2712V98.8771H76.0593V106.483H60.8474V114.089H45.6356Z" fill="white"/>
</svg>
