<svg width="59" height="61" viewBox="0 0 59 61" fill="none" xmlns="http://www.w3.org/2000/svg">
<path d="M9.83333 31.72H14.75V36.6H9.83333V31.72Z" fill="black"/>
<path d="M9.83333 56.12H14.75V61H9.83333V56.12Z" fill="black"/>
<path d="M19.6667 29.28H24.5833V34.16H19.6667V29.28Z" fill="black"/>
<path d="M19.6667 56.12H24.5833V61H19.6667V56.12Z" fill="black"/>
<path d="M29.5 0L34.4167 0V4.88H29.5V0Z" fill="black"/>
<path d="M29.5 7.32H34.4167V12.2H29.5V7.32Z" fill="black"/>
<path d="M29.5 12.2H34.4167V17.08H29.5V12.2Z" fill="black"/>
<path d="M29.5 17.08H34.4167V21.96H29.5V17.08Z" fill="black"/>
<path d="M29.5 21.96H34.4167V26.84H29.5V21.96Z" fill="black"/>
<path d="M24.5833 26.84H29.5V31.72H24.5833V26.84Z" fill="black"/>
<path d="M29.5 56.12H34.4167V61H29.5V56.12Z" fill="black"/>
<path d="M39.3333 7.32H44.25V12.2H39.3333V7.32Z" fill="black"/>
<path d="M39.3333 51.24H44.25V56.12H39.3333V51.24Z" fill="black"/>
<path d="M49.1667 0L54.0833 0V4.88H49.1667V0Z" fill="black"/>
<path d="M39.3333 0L44.25 0V4.88H39.3333V0Z" fill="black"/>
<path d="M44.25 0L49.1667 0V4.88H44.25V0Z" fill="black"/>
<path d="M34.4167 0L39.3333 0V4.88H34.4167V0Z" fill="black"/>
<path d="M49.1667 7.32H54.0833V12.2L49.1667 12.2V7.32Z" fill="black"/>
<path d="M49.1667 12.2L54.0833 12.2V17.08H49.1667V12.2Z" fill="black"/>
<path d="M49.1667 17.08H54.0833V21.96H49.1667V17.08Z" fill="black"/>
<path d="M49.1667 21.96H54.0833V26.84H49.1667V21.96Z" fill="black"/>
<path d="M49.1667 26.84H54.0833V31.72H49.1667V26.84Z" fill="black"/>
<path d="M49.1667 31.72H54.0833V36.6H49.1667V31.72Z" fill="black"/>
<path d="M49.1667 36.6H54.0833V41.48H49.1667V36.6Z" fill="black"/>
<path d="M9.83333 31.72H14.75V36.6H9.83333V31.72Z" fill="black"/>
<path d="M14.75 31.72H19.6667V36.6H14.75V31.72Z" fill="black"/>
<path d="M14.75 56.12H19.6667V61H14.75V56.12Z" fill="black"/>
<path d="M24.5833 4.88L29.5 4.88V9.76H24.5833V4.88Z" fill="black"/>
<path d="M24.5833 56.12H29.5V61H24.5833V56.12Z" fill="black"/>
<path d="M34.4167 7.32H39.3333V12.2H34.4167V7.32Z" fill="black"/>
<path d="M34.4167 51.24H39.3333V56.12H34.4167V51.24Z" fill="black"/>
<path d="M4.91667 36.6H9.83333V41.48H4.91667V36.6Z" fill="black"/>
<path d="M4.91667 51.24H9.83333L9.83333 56.12H4.91667V51.24Z" fill="black"/>
<path d="M0 41.48H4.91667V46.36H0L0 41.48Z" fill="black"/>
<path d="M0 46.36H4.91667V51.24H0L0 46.36Z" fill="black"/>
<path d="M44.25 7.32H49.1667V12.2H44.25V7.32Z" fill="black"/>
<path d="M46.7083 41.48H51.625V46.36H46.7083V41.48Z" fill="black"/>
<path d="M44.25 46.36H49.1667V51.24H44.25V46.36Z" fill="black"/>
<path d="M54.0833 2.44H59V7.32H54.0833V2.44Z" fill="black"/>
<path d="M24.5833 2.44H29.5V7.32L24.5833 7.32V2.44Z" fill="black"/>
<path d="M54.0833 4.88H59V9.76H54.0833V4.88Z" fill="black"/>
<path d="M34.4167 4.88H29.5V7.32H34.4167H39.3333H44.25H49.1667H54.0833V4.88H49.1667H44.25H39.3333H34.4167Z" fill="white"/>
<path d="M14.75 36.6H9.83333V41.48H4.91667V46.36V51.24H9.83333L9.83333 56.12H14.75H19.6667H24.5833H29.5H34.4167V51.24H39.3333H44.25V46.36H46.7083V41.48H49.1667V36.6V31.72V26.84V21.96V17.08V12.2H44.25H39.3333H34.4167V17.08V21.96V26.84H29.5V31.72H24.5833V34.16H19.6667V36.6H14.75Z" fill="white"/>
</svg>
