<svg width="59" height="61" viewBox="0 0 59 61" fill="none" xmlns="http://www.w3.org/2000/svg">
<path d="M9.71629 31.5779H14.5744V36.4361H9.71629V31.5779Z" fill="black"/>
<path d="M9.71629 55.8686H14.5744V60.7268H9.71629V55.8686Z" fill="black"/>
<path d="M19.4326 29.1489H24.2907V34.007H19.4326V29.1489Z" fill="black"/>
<path d="M19.4326 55.8686H24.2907V60.7268H19.4326V55.8686Z" fill="black"/>
<path d="M29.1489 0H34.007V4.85814H29.1489V0Z" fill="black"/>
<path d="M29.1489 7.28721H34.007V12.1454H29.1489V7.28721Z" fill="black"/>
<path d="M29.1489 12.1454H34.007V17.0035H29.1489V12.1454Z" fill="black"/>
<path d="M29.1489 17.0035H34.007V21.8616H29.1489V17.0035Z" fill="black"/>
<path d="M29.1489 21.8616H34.007V26.7198H29.1489V21.8616Z" fill="black"/>
<path d="M24.2907 26.7198H29.1489V31.5779H24.2907V26.7198Z" fill="black"/>
<path d="M29.1489 55.8686H34.007V60.7268H29.1489V55.8686Z" fill="black"/>
<path d="M38.8651 7.28721H43.7233V12.1454H38.8651V7.28721Z" fill="black"/>
<path d="M38.8651 51.0105H43.7233V55.8686H38.8651V51.0105Z" fill="black"/>
<path d="M48.5814 0H53.4396V4.85814H48.5814V0Z" fill="black"/>
<path d="M38.8651 0H43.7233V4.85814H38.8651V0Z" fill="black"/>
<path d="M43.7233 0H48.5814V4.85814H43.7233V0Z" fill="black"/>
<path d="M34.007 0H38.8651V4.85814H34.007V0Z" fill="black"/>
<path d="M48.5814 7.28721H53.4396V12.1454H48.5814V7.28721Z" fill="black"/>
<path d="M48.5814 12.1454H53.4396V17.0035H48.5814V12.1454Z" fill="black"/>
<path d="M48.5814 17.0035H53.4396V21.8616H48.5814V17.0035Z" fill="black"/>
<path d="M48.5814 21.8616H53.4396V26.7198H48.5814V21.8616Z" fill="black"/>
<path d="M48.5814 26.7198H53.4396V31.5779H48.5814V26.7198Z" fill="black"/>
<path d="M48.5814 31.5779H53.4396V36.4361H48.5814V31.5779Z" fill="black"/>
<path d="M48.5814 36.4361H53.4396V41.2942H48.5814V36.4361Z" fill="black"/>
<path d="M9.71629 31.5779H14.5744V36.4361H9.71629V31.5779Z" fill="black"/>
<path d="M14.5744 31.5779H19.4326V36.4361H14.5744V31.5779Z" fill="black"/>
<path d="M14.5744 55.8686H19.4326V60.7268H14.5744V55.8686Z" fill="black"/>
<path d="M24.2907 4.85814H29.1489V9.71628H24.2907V4.85814Z" fill="black"/>
<path d="M24.2907 55.8686H29.1489V60.7268H24.2907V55.8686Z" fill="black"/>
<path d="M34.007 7.28721H38.8651V12.1454H34.007V7.28721Z" fill="black"/>
<path d="M34.007 51.0105H38.8651V55.8686H34.007V51.0105Z" fill="black"/>
<path d="M4.85814 36.4361H9.71629V41.2942H4.85814V36.4361Z" fill="black"/>
<path d="M4.85814 51.0105H9.71629V55.8686H4.85814V51.0105Z" fill="black"/>
<path d="M0 41.2942H4.85814V46.1524H0V41.2942Z" fill="black"/>
<path d="M0 46.1524H4.85814V51.0105H0V46.1524Z" fill="black"/>
<path d="M43.7233 7.28721H48.5814V12.1454H43.7233V7.28721Z" fill="black"/>
<path d="M46.1524 41.2942H51.0105V46.1524H46.1524V41.2942Z" fill="black"/>
<path d="M43.7233 46.1524H48.5814V51.0105H43.7233V46.1524Z" fill="black"/>
<path d="M53.4396 2.42907H58.2977V7.28721H53.4396V2.42907Z" fill="black"/>
<path d="M24.2907 2.42907H29.1489V7.28721H24.2907V2.42907Z" fill="black"/>
<path d="M53.4396 4.85814H58.2977V9.71628H53.4396V4.85814Z" fill="black"/>
<path d="M34.007 4.85814H29.1489V7.28721H34.007H38.8651H43.7233H48.5814H53.4396V4.85814H48.5814H43.7233H38.8651H34.007Z" fill="#FFD519"/>
<path d="M14.5744 36.4361H9.71629V41.2942H4.85814V46.1524V51.0105H9.71629V55.8686H14.5744H19.4326H24.2907H29.1489H34.007V51.0105H38.8651H43.7233V46.1524H46.1524V41.2942H48.5814V36.4361V31.5779V26.7198V21.8616V17.0035V12.1454H43.7233H38.8651H34.007V17.0035V21.8616V26.7198H29.1489V31.5779H24.2907V34.007H19.4326V36.4361H14.5744Z" fill="#FFD519"/>
</svg>
