<svg width="59" height="61" viewBox="0 0 59 61" fill="none" xmlns="http://www.w3.org/2000/svg">
<path d="M9.71629 31.5779L14.5744 31.5779L14.5744 36.4361H9.71629L9.71629 31.5779Z" fill="black"/>
<path d="M9.71629 55.8686H14.5744L14.5744 60.7268H9.71629L9.71629 55.8686Z" fill="black"/>
<path d="M19.4326 29.1489H24.2907V34.007H19.4326V29.1489Z" fill="black"/>
<path d="M19.4326 55.8686H24.2907V60.7268H19.4326V55.8686Z" fill="black"/>
<path d="M29.1489 0L34.007 0V4.85814H29.1489V0Z" fill="black"/>
<path d="M29.1489 7.28721H34.007V12.1454L29.1489 12.1454V7.28721Z" fill="black"/>
<path d="M29.1489 12.1454L34.007 12.1454V17.0035H29.1489L29.1489 12.1454Z" fill="black"/>
<path d="M29.1489 17.0035H34.007V21.8616H29.1489V17.0035Z" fill="black"/>
<path d="M29.1489 21.8616H34.007L34.007 26.7198H29.1489V21.8616Z" fill="black"/>
<path d="M24.2907 26.7198H29.1489V31.5779H24.2907V26.7198Z" fill="black"/>
<path d="M29.1489 55.8686H34.007V60.7268H29.1489V55.8686Z" fill="black"/>
<path d="M38.8651 7.28721L43.7233 7.28721V12.1454H38.8651V7.28721Z" fill="black"/>
<path d="M38.8651 51.0105H43.7233V55.8686H38.8651V51.0105Z" fill="black"/>
<path d="M48.5814 0L53.4396 0V4.85814H48.5814V0Z" fill="black"/>
<path d="M38.8651 0L43.7233 0V4.85814L38.8651 4.85814V0Z" fill="black"/>
<path d="M43.7233 0L48.5814 0V4.85814L43.7233 4.85814V0Z" fill="black"/>
<path d="M34.007 0L38.8651 0V4.85814L34.007 4.85814V0Z" fill="black"/>
<path d="M48.5814 7.28721H53.4396V12.1454H48.5814V7.28721Z" fill="black"/>
<path d="M48.5814 12.1454H53.4396V17.0035H48.5814V12.1454Z" fill="black"/>
<path d="M48.5814 17.0035H53.4396V21.8616H48.5814V17.0035Z" fill="black"/>
<path d="M48.5814 21.8616H53.4396L53.4396 26.7198H48.5814L48.5814 21.8616Z" fill="black"/>
<path d="M48.5814 26.7198H53.4396V31.5779H48.5814V26.7198Z" fill="black"/>
<path d="M48.5814 31.5779H53.4396V36.4361H48.5814V31.5779Z" fill="black"/>
<path d="M48.5814 36.4361H53.4396V41.2942H48.5814V36.4361Z" fill="black"/>
<path d="M9.71629 31.5779L14.5744 31.5779L14.5744 36.4361H9.71629L9.71629 31.5779Z" fill="black"/>
<path d="M14.5744 31.5779H19.4326V36.4361H14.5744L14.5744 31.5779Z" fill="black"/>
<path d="M14.5744 55.8686H19.4326V60.7268H14.5744L14.5744 55.8686Z" fill="black"/>
<path d="M24.2907 4.85814L29.1489 4.85814V9.71628H24.2907V4.85814Z" fill="black"/>
<path d="M24.2907 55.8686L29.1489 55.8686V60.7268L24.2907 60.7268V55.8686Z" fill="black"/>
<path d="M34.007 7.28721L38.8651 7.28721V12.1454H34.007V7.28721Z" fill="black"/>
<path d="M34.007 51.0105H38.8651V55.8686H34.007V51.0105Z" fill="black"/>
<path d="M4.85814 36.4361H9.71629V41.2942H4.85814V36.4361Z" fill="black"/>
<path d="M4.85814 51.0105H9.71629V55.8686H4.85814L4.85814 51.0105Z" fill="black"/>
<path d="M0 41.2942H4.85814L4.85814 46.1524H0L0 41.2942Z" fill="black"/>
<path d="M0 46.1524H4.85814L4.85814 51.0105H0L0 46.1524Z" fill="black"/>
<path d="M43.7233 7.28721L48.5814 7.28721V12.1454L43.7233 12.1454V7.28721Z" fill="black"/>
<path d="M46.1524 41.2942H51.0105V46.1524H46.1524V41.2942Z" fill="black"/>
<path d="M43.7233 46.1524H48.5814V51.0105H43.7233V46.1524Z" fill="black"/>
<path d="M53.4396 2.42907L58.2977 2.42907V7.28721L53.4396 7.28721V2.42907Z" fill="black"/>
<path d="M24.2907 2.42907L29.1489 2.42907V7.28721L24.2907 7.28721V2.42907Z" fill="black"/>
<path d="M53.4396 4.85814L58.2977 4.85814V9.71628L53.4396 9.71628V4.85814Z" fill="black"/>
<path d="M34.007 4.85814H29.1489V7.28721H34.007L38.8651 7.28721L43.7233 7.28721L48.5814 7.28721H53.4396V4.85814H48.5814L43.7233 4.85814L38.8651 4.85814L34.007 4.85814Z" fill="#66A46C"/>
<path d="M14.5744 36.4361H9.71629V41.2942H4.85814L4.85814 46.1524L4.85814 51.0105H9.71629V55.8686H14.5744H19.4326H24.2907L29.1489 55.8686H34.007V51.0105H38.8651H43.7233V46.1524H46.1524V41.2942H48.5814V36.4361V31.5779V26.7198L48.5814 21.8616V17.0035V12.1454L43.7233 12.1454H38.8651H34.007V17.0035V21.8616L34.007 26.7198H29.1489V31.5779H24.2907V34.007H19.4326V36.4361H14.5744Z" fill="#66A46C"/>
</svg>
