<svg width="174" height="188" viewBox="0 0 174 188" fill="none" xmlns="http://www.w3.org/2000/svg">
<path d="M28.9231 72.3077H43.3846L43.3846 86.7692H28.9231L28.9231 72.3077Z" fill="white"/>
<path d="M28.9231 86.7692H43.3846L43.3846 101.231H28.9231L28.9231 86.7692Z" fill="#FF4AAE"/>
<path d="M57.8461 57.8461H72.3077L72.3077 72.3077H57.8461L57.8461 57.8461Z" fill="#FF4AAE"/>
<path d="M57.8461 72.3077H72.3077L72.3077 86.7692H57.8461L57.8461 72.3077Z" fill="#FF4AAE"/>
<path d="M57.8461 101.231H72.3077L72.3077 115.692H57.8461L57.8461 101.231Z" fill="#FF4AAE"/>
<path d="M57.8461 115.692H72.3077L72.3077 130.154H57.8461L57.8461 115.692Z" fill="#FF4AAE"/>
<path d="M57.8461 130.154H72.3077L72.3077 144.615H57.8461L57.8461 130.154Z" fill="#FF4AAE"/>
<path d="M86.7692 14.4615H101.231L101.231 28.9231H86.7692L86.7692 14.4615Z" fill="white"/>
<path d="M86.7692 14.4615H101.231L101.231 28.9231H86.7692L86.7692 14.4615Z" fill="#FF4AAE"/>
<path d="M86.7692 0H101.231L101.231 14.4615H86.7692L86.7692 0Z" fill="#FF4AAE"/>
<path d="M86.7692 28.9231H101.231L101.231 43.3846H86.7692L86.7692 28.9231Z" fill="#FF4AAE"/>
<path d="M86.7692 43.3846H101.231L101.231 57.8461H86.7692L86.7692 43.3846Z" fill="#FF4AAE"/>
<path d="M86.7692 115.692H101.231L101.231 130.154H86.7692L86.7692 115.692Z" fill="#FF4AAE"/>
<path d="M86.7692 130.154H101.231L101.231 144.615H86.7692L86.7692 130.154Z" fill="#FF4AAE"/>
<path d="M86.7692 144.615H101.231L101.231 159.077H86.7692L86.7692 144.615Z" fill="#FF4AAE"/>
<path d="M115.692 86.7692H130.154L130.154 101.231H115.692L115.692 86.7692Z" fill="#FF4AAE"/>
<path d="M115.692 101.231H130.154L130.154 115.692H115.692L115.692 101.231Z" fill="#FF4AAE"/>
<path d="M144.615 86.7692H159.077L159.077 101.231H144.615L144.615 86.7692Z" fill="#FF4AAE"/>
<path d="M43.3846 72.3077H57.8461L57.8461 86.7692H43.3846L43.3846 72.3077Z" fill="#FF4AAE"/>
<path d="M28.9231 72.3077H43.3846L43.3846 86.7692H28.9231L28.9231 72.3077Z" fill="#FF4AAE"/>
<path d="M43.3846 86.7692H57.8461L57.8461 101.231H43.3846L43.3846 86.7692Z" fill="#FF4AAE"/>
<path d="M43.3846 101.231H57.8461L57.8461 115.692H43.3846L43.3846 101.231Z" fill="#FF4AAE"/>
<path d="M72.3077 28.9231H86.7692L86.7692 43.3846H72.3077L72.3077 28.9231Z" fill="#FF4AAE"/>
<path d="M72.3077 43.3846H86.7692L86.7692 57.8461H72.3077L72.3077 43.3846Z" fill="#FF4AAE"/>
<path d="M72.3077 57.8461H86.7692L86.7692 72.3077H72.3077L72.3077 57.8461Z" fill="#FF4AAE"/>
<path d="M72.3077 130.154H86.7692L86.7692 144.615H72.3077L72.3077 130.154Z" fill="#FF4AAE"/>
<path d="M72.3077 144.615H86.7692L86.7692 159.077H72.3077L72.3077 144.615Z" fill="#FF4AAE"/>
<path d="M72.3077 159.077H86.7692L86.7692 173.538H72.3077L72.3077 159.077Z" fill="#FF4AAE"/>
<path d="M72.3077 173.538H86.7692L86.7692 188H72.3077L72.3077 173.538Z" fill="#FF4AAE"/>
<path d="M101.231 43.3846H115.692L115.692 57.8461H101.231L101.231 43.3846Z" fill="white"/>
<path d="M101.231 57.8461H115.692L115.692 72.3077H101.231L101.231 57.8461Z" fill="#FF4AAE"/>
<path d="M101.231 43.3846H115.692L115.692 57.8461H101.231L101.231 43.3846Z" fill="#FF4AAE"/>
<path d="M101.231 72.3077H115.692L115.692 86.7692H101.231L101.231 72.3077Z" fill="#FF4AAE"/>
<path d="M101.231 101.231H115.692L115.692 115.692H101.231L101.231 101.231Z" fill="#FF4AAE"/>
<path d="M101.231 115.692H115.692L115.692 130.154H101.231L101.231 115.692Z" fill="#FF4AAE"/>
<path d="M14.4615 86.7692H28.9231L28.9231 101.231H14.4615L14.4615 86.7692Z" fill="#FF4AAE"/>
<path d="M1.48554e-06 86.7692H14.4615L14.4615 101.231H1.27332e-06L1.48554e-06 86.7692Z" fill="#FF4AAE"/>
<path d="M130.154 86.7692H144.615L144.615 101.231H130.154L130.154 86.7692Z" fill="#FF4AAE"/>
<path d="M130.154 101.231H144.615L144.615 115.692H130.154L130.154 101.231Z" fill="#FF4AAE"/>
<path d="M159.077 86.7692H173.538L173.538 101.231H159.077L159.077 86.7692Z" fill="#FF4AAE"/>
<path d="M115.692 72.3077H130.154L130.154 86.7692H115.692L115.692 72.3077Z" fill="#FF4AAE"/>
</svg>
